<svg xmlns="http://www.w3.org/2000/svg" viewBox="0 0 1280 640" width="1280" height="640" role="img" aria-label="What I build and my current focus" xmlns:c2pa="http://c2pa.org/manifest"><metadata><c2pa:manifest>AAAWgmp1bWIAAAAeanVtZGMycGEAEQAQgAAAqgA4m3EDYzJwYQAAABZcanVtYgAAAEdqdW1kYzJtYQARABCAAACqADibcQN1cm46YzJwYTo1ZDNmOTYxNy04OTQ5LTQyMWEtYWU2Mi1lOWYyMTQ5M2QyOGEAAAADl2p1bWIAAAApanVtZGMyYXMAEQAQgAAAqgA4m3EDYzJwYS5hc3NlcnRpb25zAAAAALxqdW1iAAAARGp1bWRjYm9yABEAEIAAAKoAOJtxE2MycGEuaW5ncmVkaWVudC52MwAAAAAYYzJzaDqJoBo+BRuAG1si2ZF/4z4AAABwY2JvcqNpZGM6Zm9ybWF0bWltYWdlL3N2Zyt4bWxqaW5zdGFuY2VJRHgseG1wOmlpZDpkYjM5MWFjYS01YzJlLTRkYmQtODdmNC1jZmI5ODRjMzYzYzVscmVsYXRpb25zaGlwaHBhcmVudE9mAAAB4mp1bWIAAABBanVtZGNib3IAEQAQgAAAqgA4m3ETYzJwYS5hY3Rpb25zLnYyAAAAABhjMnNobUxP+Hd16h1yzs7OYFkNSgAAAZljYm9yomdhY3Rpb25zgqJmYWN0aW9ua2MycGEub3BlbmVkanBhcmFtZXRlcnOha2luZ3JlZGllbnRzgaJjdXJseC1zZWxmI2p1bWJmPWMycGEuYXNzZXJ0aW9ucy9jMnBhLmluZ3JlZGllbnQudjNkaGFzaFgg5O9kCKGEu/keRvSaznS0D6RDiDYwSwtBLNddrzv9we2kZmFjdGlvbngdY29tLmFudGhyb3BpYy5jbGF1ZGUucHJvdmlkZWRqcGFyYW1ldGVyc6F4H2NvbS5hbnRocm9waWMub3JpZ2luLWNvbmZpZGVuY2VndW5rbm93bmtkZXNjcmlwdGlvbnhmQ2xhdWRlIHByb3ZpZGVkIHRoaXMgZmlsZSBhdCB0aGUgcmVxdWVzdCBvZiBhIHVzZXIgYW5kIG1heSBoYXZlIGNyZWF0ZWQgb3IgbW9kaWZpZWQgdGhlIGZpbGUgY29udGVudHMubXNvZnR3YXJlQWdlbnShZG5hbWVmQ2xhdWRlcmFsbEFjdGlvbnNJbmNsdWRlZPUAAADIanVtYgAAAEBqdW1kY2JvcgARABCAAACqADibcRNjMnBhLmhhc2guZGF0YQAAAAAYYzJzaHMhHOkBxCDBGJB66874C3cAAACAY2JvcqVjYWxnZnNoYTI1NmNwYWRNAAAAAAAAAAAAAAAAAGRoYXNoWCDkpSzvSxRSA04dn0+oesxOwqu8BiRE1zRCQmq58WJxN2RuYW1lbmp1bWJmIG1hbmlmZXN0amV4Y2x1c2lvbnOBomVzdGFydBjSZmxlbmd0aBkeBAAAAj5qdW1iAAAAJ2p1bWRjMmNsABEAEIAAAKoAOJtxA2MycGEuY2xhaW0udjIAAAACD2Nib3KlY2FsZ2ZzaGEyNTZpc2lnbmF0dXJleE1zZWxmI2p1bWJmPS9jMnBhL3VybjpjMnBhOjVkM2Y5NjE3LTg5NDktNDIxYS1hZTYyLWU5ZjIxNDkzZDI4YS9jMnBhLnNpZ25hdHVyZWppbnN0YW5jZUlEeCx4bXA6aWlkOmE0YmNkOWZiLWFkYTYtNGM1ZC1hZjUyLTg3MGY4NTU3N2U1YXJjcmVhdGVkX2Fzc2VydGlvbnODomN1cmx4LXNlbGYjanVtYmY9YzJwYS5hc3NlcnRpb25zL2MycGEuaW5ncmVkaWVudC52M2RoYXNoWCDk72QIoYS7+R5G9JrOdLQPpEOINjBLC0Es112vO/3B7aJjdXJseCpzZWxmI2p1bWJmPWMycGEuYXNzZXJ0aW9ucy9jMnBhLmFjdGlvbnMudjJkaGFzaFggbvgRxNloGllKey0BWcWvvOTpjWQC7eLJMWGyxTSi67+iY3VybHgpc2VsZiNqdW1iZj1jMnBhLmFzc2VydGlvbnMvYzJwYS5oYXNoLmRhdGFkaGFzaFggcUTpBW5ZXYrAcPvQmWMZsCibQPNjsN4OkWPpBxzjL/N0Y2xhaW1fZ2VuZXJhdG9yX2luZm+jZG5hbWVvQW50aHJvcGljIEZpbGVzZ3ZlcnNpb25lMS4wLjBrc3BlY1ZlcnNpb25lMi40LjAAABA4anVtYgAAAChqdW1kYzJjcwARABCAAACqADibcQNjMnBhLnNpZ25hdHVyZQAAABAIY2JvctKEWQISogEmGCFZAgowggIGMIIBjaADAgECAhRA5aAK7sI50L64g/oGQgU9Z1UTADAKBggqhkjOPQQDAzBJMRcwFQYDVQQKEw5BbnRocm9waWMsIFBCQzEuMCwGA1UEAxMlQW50aHJvcGljIENvbnRlbnQgQ3JlZGVudGlhbHMgUm9vdCBDQTAeFw0yNjA4MDcxODQzNTZaFw0yODA4MDYxOTQzNTZaMEQxFzAVBgNVBAoTDkFudGhyb3BpYywgUEJDMSkwJwYDVQQDEyBBbnRocm9waWMgQ2xhdWRlIENvbnRlbnQgU2lnbmluZzBZMBMGByqGSM49AgEGCCqGSM49AwEHA0IABJh6CmvLUBgFFNU0vUKlOVtE6djd17L5SuwX0LemFisBM3dkd/3cyjxFA3Qo5S46fX0/ihY0VZ7mfb9KF703t5OjWDBWMA4GA1UdDwEB/wQEAwIHgDAVBgNVHSUEDjAMBgorBgEEAYPoXgIBMAwGA1UdEwEB/wQCMAAwHwYDVR0jBBgwFoAUzlHiBIFOZFsj+OPEz5o+nMHXXMIwCgYIKoZIzj0EAwMDZwAwZAIwMXMdFJ4BetLLVY7ORuE9noqbbAZOZn/aArXyTwFAZfKrPzxF2vPoJNf1+UCdg1XGAjBwX1zd9WGqYkqmL5SFqw1QySjr1zJfpJM9+1rdDwSPLMOPOjKuiXjoU/pUUeG9RwmhY3BhZFkNngAAAAAAAAAAAAAAAAAAAAAAAAAAAAAAAAAAAAAAAAAAAAAAAAAAAAAAAAAAAAAAAAAAAAAAAAAAAAAAAAAAAAAAAAAAAAAAAAAAAAAAAAAAAAAAAAAAAAAAAAAAAAAAAAAAAAAAAAAAAAAAAAAAAAAAAAAAAAAAAAAAAAAAAAAAAAAAAAAAAAAAAAAAAAAAAAAAAAAAAAAAAAAAAAAAAAAAAAAAAAAAAAAAAAAAAAAAAAAAAAAAAAAAAAAAAAAAAAAAAAAAAAAAAAAAAAAAAAAAAAAAAAAAAAAAAAAAAAAAAAAAAAAAAAAAAAAAAAAAAAAAAAAAAAAAAAAAAAAAAAAAAAAAAAAAAAAAAAAAAAAAAAAAAAAAAAAAAAAAAAAAAAAAAAAAAAAAAAAAAAAAAAAAAAAAAAAAAAAAAAAAAAAAAAAAAAAAAAAAAAAAAAAAAAAAAAAAAAAAAAAAAAAAAAAAAAAAAAAAAAAAAAAAAAAAAAAAAAAAAAAAAAAAAAAAAAAAAAAAAAAAAAAAAAAAAAAAAAAAAAAAAAAAAAAAAAAAAAAAAAAAAAAAAAAAAAAAAAAAAAAAAAAAAAAAAAAAAAAAAAAAAAAAAAAAAAAAAAAAAAAAAAAAAAAAAAAAAAAAAAAAAAAAAAAAAAAAAAAAAAAAAAAAAAAAAAAAAAAAAAAAAAAAAAAAAAAAAAAAAAAAAAAAAAAAAAAAAAAAAAAAAAAAAAAAAAAAAAAAAAAAAAAAAAAAAAAAAAAAAAAAAAAAAAAAAAAAAAAAAAAAAAAAAAAAAAAAAAAAAAAAAAAAAAAAAAAAAAAAAAAAAAAAAAAAAAAAAAAAAAAAAAAAAAAAAAAAAAAAAAAAAAAAAAAAAAAAAAAAAAAAAAAAAAAAAAAAAAAAAAAAAAAAAAAAAAAAAAAAAAAAAAAAAAAAAAAAAAAAAAAAAAAAAAAAAAAAAAAAAAAAAAAAAAAAAAAAAAAAAAAAAAAAAAAAAAAAAAAAAAAAAAAAAAAAAAAAAAAAAAAAAAAAAAAAAAAAAAAAAAAAAAAAAAAAAAAAAAAAAAAAAAAAAAAAAAAAAAAAAAAAAAAAAAAAAAAAAAAAAAAAAAAAAAAAAAAAAAAAAAAAAAAAAAAAAAAAAAAAAAAAAAAAAAAAAAAAAAAAAAAAAAAAAAAAAAAAAAAAAAAAAAAAAAAAAAAAAAAAAAAAAAAAAAAAAAAAAAAAAAAAAAAAAAAAAAAAAAAAAAAAAAAAAAAAAAAAAAAAAAAAAAAAAAAAAAAAAAAAAAAAAAAAAAAAAAAAAAAAAAAAAAAAAAAAAAAAAAAAAAAAAAAAAAAAAAAAAAAAAAAAAAAAAAAAAAAAAAAAAAAAAAAAAAAAAAAAAAAAAAAAAAAAAAAAAAAAAAAAAAAAAAAAAAAAAAAAAAAAAAAAAAAAAAAAAAAAAAAAAAAAAAAAAAAAAAAAAAAAAAAAAAAAAAAAAAAAAAAAAAAAAAAAAAAAAAAAAAAAAAAAAAAAAAAAAAAAAAAAAAAAAAAAAAAAAAAAAAAAAAAAAAAAAAAAAAAAAAAAAAAAAAAAAAAAAAAAAAAAAAAAAAAAAAAAAAAAAAAAAAAAAAAAAAAAAAAAAAAAAAAAAAAAAAAAAAAAAAAAAAAAAAAAAAAAAAAAAAAAAAAAAAAAAAAAAAAAAAAAAAAAAAAAAAAAAAAAAAAAAAAAAAAAAAAAAAAAAAAAAAAAAAAAAAAAAAAAAAAAAAAAAAAAAAAAAAAAAAAAAAAAAAAAAAAAAAAAAAAAAAAAAAAAAAAAAAAAAAAAAAAAAAAAAAAAAAAAAAAAAAAAAAAAAAAAAAAAAAAAAAAAAAAAAAAAAAAAAAAAAAAAAAAAAAAAAAAAAAAAAAAAAAAAAAAAAAAAAAAAAAAAAAAAAAAAAAAAAAAAAAAAAAAAAAAAAAAAAAAAAAAAAAAAAAAAAAAAAAAAAAAAAAAAAAAAAAAAAAAAAAAAAAAAAAAAAAAAAAAAAAAAAAAAAAAAAAAAAAAAAAAAAAAAAAAAAAAAAAAAAAAAAAAAAAAAAAAAAAAAAAAAAAAAAAAAAAAAAAAAAAAAAAAAAAAAAAAAAAAAAAAAAAAAAAAAAAAAAAAAAAAAAAAAAAAAAAAAAAAAAAAAAAAAAAAAAAAAAAAAAAAAAAAAAAAAAAAAAAAAAAAAAAAAAAAAAAAAAAAAAAAAAAAAAAAAAAAAAAAAAAAAAAAAAAAAAAAAAAAAAAAAAAAAAAAAAAAAAAAAAAAAAAAAAAAAAAAAAAAAAAAAAAAAAAAAAAAAAAAAAAAAAAAAAAAAAAAAAAAAAAAAAAAAAAAAAAAAAAAAAAAAAAAAAAAAAAAAAAAAAAAAAAAAAAAAAAAAAAAAAAAAAAAAAAAAAAAAAAAAAAAAAAAAAAAAAAAAAAAAAAAAAAAAAAAAAAAAAAAAAAAAAAAAAAAAAAAAAAAAAAAAAAAAAAAAAAAAAAAAAAAAAAAAAAAAAAAAAAAAAAAAAAAAAAAAAAAAAAAAAAAAAAAAAAAAAAAAAAAAAAAAAAAAAAAAAAAAAAAAAAAAAAAAAAAAAAAAAAAAAAAAAAAAAAAAAAAAAAAAAAAAAAAAAAAAAAAAAAAAAAAAAAAAAAAAAAAAAAAAAAAAAAAAAAAAAAAAAAAAAAAAAAAAAAAAAAAAAAAAAAAAAAAAAAAAAAAAAAAAAAAAAAAAAAAAAAAAAAAAAAAAAAAAAAAAAAAAAAAAAAAAAAAAAAAAAAAAAAAAAAAAAAAAAAAAAAAAAAAAAAAAAAAAAAAAAAAAAAAAAAAAAAAAAAAAAAAAAAAAAAAAAAAAAAAAAAAAAAAAAAAAAAAAAAAAAAAAAAAAAAAAAAAAAAAAAAAAAAAAAAAAAAAAAAAAAAAAAAAAAAAAAAAAAAAAAAAAAAAAAAAAAAAAAAAAAAAAAAAAAAAAAAAAAAAAAAAAAAAAAAAAAAAAAAAAAAAAAAAAAAAAAAAAAAAAAAAAAAAAAAAAAAAAAAAAAAAAAAAAAAAAAAAAAAAAAAAAAAAAAAAAAAAAAAAAAAAAAAAAAAAAAAAAAAAAAAAAAAAAAAAAAAAAAAAAAAAAAAAAAAAAAAAAAAAAAAAAAAAAAAAAAAAAAAAAAAAAAAAAAAAAAAAAAAAAAAAAAAAAAAAAAAAAAAAAAAAAAAAAAAAAAAAAAAAAAAAAAAAAAAAAAAAAAAAAAAAAAAAAAAAAAAAAAAAAAAAAAAAAAAAAAAAAAAAAAAAAAAAAAAAAAAAAAAAAAAAAAAAAAAAAAAAAAAAAAAAAAAAAAAAAAAAAAAAAAAAAAAAAAAAAAAAAAAAAAAAAAAAAAAAAAAAAAAAAAAAAAAAAAAAAAAAAAAAAAAAAAAAAAAAAAAAAAAAAAAAAAAAAAAAAAAAAAAAAAAAAAAAAAAAAAAAAAAAAAAAAAAAAAAAAAAAAAAAAAAAAAAAAAAAAAAAAAAAAAAAAAAAAAAAAAAAAAAAAAAAAAAAAAAAAAAAAAAAAAAAAAAAAAAAAAAAAAAAAAAAAAAAAAAAAAAAAAAAAAAAAAAAAAAAAAAAAAAAAAAAAAAAAAAAAAAAAAAAAAAAAAAAAAAAAAAAAAAAAAAAAAAAAAAAAAAAAAAAAAAAAAAAAAAAAAAAAAAAAAAAAAAAAAAAAAAAAAAAAAAAAAAAAAAAAAAAAAAAAAAAAAAAAAAAAAAAAAAAAAAAAAAAAAAAAAAAAAAAAAAAAAAAAAAAAAAAAAAAAAAAAAAAAAAAAAAAAAAAAAAAAAAAAAAAAAAAAAAAAAAAAAAAAAAAAAAAAAAAAAAAAAAAAAAAAAAAAAAAAAAAAAAAAAAAAAAAAAAAAAAAAAAAAAAAAAAAAAAAAAAAAAAAAAAAAAAAAAAAAAAAAAAAAAAAAAAAAAAAAAAAAAAAAAAAAAAAAAAAAAAAAAAAAAAAAAAAAAAAAAAAAAAAAAAAAAAAAAAAAAAAAAAAAAAAAAAAAAAAAAAAAAAAAAAAAAAAAAAAAAAAAAAAAAAAAAAAAAAAAAAAAAAAAAAAAAAAAAAAAAAAAAAAAAAAAAAAAAAAAAAAAAAAAAAAAAAAAAAAAAAAAAAAAAAAAAAAAAAAAAAAAAAAAAAAAAAAAAAAAAAAAAAAAAAAAAAAAAAAAAAAAAAAAAAAAAAAAAAAAAAAAAAAAAAAAAAAAAAAAAAAAAAAAAAAAAAAAAAAAAAAAAAAAAAAAAAAAAAAAAAAAAAAAAAAAAAAAAAAAAAAAAAAAAAAAAAAAAAAAAAAAAAAAAAAAAAAAAAAAAAAAAAAAAAAAAAAAAAAAAAAAAAAAAAAAAAAAAAAAAAAAAAAAAAAAAAAAAAAAAAAAAAAAAAAAAAAAAAAAAAAAAAAAAAAAAAAAAAAAAAAAAAAAAAAAAAAAAAAAAAAAAAAAAAAAAAAAAAAAAAAAAAAAAAAAAAAAAAAAAAAAAAAAAAAAAAAAAAAAAAAAAAAAAAAAAAAAAAAAAAAAAAAAAAAAAAAAAAAAAAAAAAAAAAAAAAAAAAAAAAAAAAAAAAAAAAAAAAAAAAAAAAAAAAAAAAAAAAAAAAAAAAAAAAAAAAAAAAAAAAAAAAAAAAAAAAAAAAAAAAAAAAAAAAAAAAAAAAAAAAAAAAAAAAAAAAAAAPZYQGT3xOOFFaIQJIaIFv4LlHaa2g4+rWbVcb4hhoPqbpOX09/GAB11hfRWwcXWgTWducIYgfg3Qs2huqsAjyKmapA=</c2pa:manifest></metadata><title>What I build and my current focus</title><desc>Left: Manish builds production-ready backend, full-stack, AI, healthcare and security systems. Right: current focus areas orbiting a timeline.</desc><defs><style>
text{font-family:'Trebuchet MS','Segoe UI',Helvetica,Arial,sans-serif}.m{font-family:ui-monospace,Menlo,Consolas,monospace}
@keyframes fadeUp{from{opacity:0;transform:translateY(14px)}to{opacity:1;transform:translateY(0)}}
@keyframes rowIn{from{opacity:0;transform:translateX(-14px)}to{opacity:1;transform:translateX(0)}}
@keyframes pulse{0%,100%{opacity:1}50%{opacity:.25}}
@keyframes bar{from{transform:scaleY(.45)}to{transform:scaleY(1)}}
@keyframes fl{0%,100%{transform:translateY(0)}50%{transform:translateY(-8px)}}
@keyframes st{0%{opacity:0;transform:translateY(4px)}50%{opacity:.8}100%{opacity:0;transform:translateY(-10px)}}
@keyframes hl{0%{opacity:0}1.5%{opacity:.85}10%{opacity:.85}13%{opacity:0}100%{opacity:0}}
@keyframes play{from{transform:translateX(704px)}to{transform:translateX(1232px)}}
@keyframes spin{to{transform:rotate(360deg)}}
@keyframes march{to{stroke-dashoffset:-24}}
.cardL{animation:fadeUp .8s cubic-bezier(.2,.8,.2,1) .1s both}
.cardR{animation:fadeUp .8s cubic-bezier(.2,.8,.2,1) .3s both}
.row{animation:rowIn .7s cubic-bezier(.2,.8,.2,1) both}
.cursor{animation:pulse 1s steps(1) infinite}
.bar{transform-box:fill-box;transform-origin:50% 100%;animation:bar 2.2s ease-in-out infinite alternate}
.fl{animation:fl 3.6s ease-in-out infinite}
.steam{animation:st 2.4s ease-in-out infinite}
.hl{opacity:0;animation:hl 16s ease infinite}
.play{animation:play 16s linear infinite}
.spin{transform-box:fill-box;transform-origin:center;animation:spin 14s linear infinite}
.dash{stroke-dasharray:6 6;animation:march 1.2s linear infinite}
@media (prefers-reduced-motion:reduce){*{animation:none!important}}
</style>
<linearGradient id="edge" x1="0" y1="0" x2="1" y2="1"><stop offset="0" stop-color="#22d3ee" stop-opacity=".55"/><stop offset=".5" stop-color="#262a42"/><stop offset="1" stop-color="#a78bfa" stop-opacity=".5"/></linearGradient>
<linearGradient id="edgeR" x1="0" y1="0" x2="1" y2="1"><stop offset="0" stop-color="#f472b6" stop-opacity=".55"/><stop offset=".5" stop-color="#262a42"/><stop offset="1" stop-color="#34d399" stop-opacity=".5"/></linearGradient>
<linearGradient id="cardbg" x1="0" y1="0" x2="0" y2="1"><stop offset="0" stop-color="#171a2c"/><stop offset="1" stop-color="#121423"/></linearGradient>
<radialGradient id="core"><stop offset="0" stop-color="#a78bfa"/><stop offset="1" stop-color="#4c2fd0"/></radialGradient>
<linearGradient id="wall" x1="0" y1="0" x2="0" y2="1"><stop offset="0" stop-color="#e9efff"/><stop offset="1" stop-color="#d3dfff"/></linearGradient>
<pattern id="dots2" width="22" height="22" patternUnits="userSpaceOnUse"><circle cx="11" cy="11" r=".8" fill="#fff" fill-opacity=".05"/></pattern>
<pattern id="dots3" width="20" height="20" patternUnits="userSpaceOnUse"><circle cx="10" cy="10" r=".9" fill="#fff" fill-opacity=".07"/></pattern>
<clipPath id="winL"><rect x="28" y="118" width="564" height="352" rx="14"/></clipPath>
<clipPath id="winR"><rect x="688" y="118" width="564" height="352" rx="14"/></clipPath></defs>
<g class="cardL"><rect x="0" width="620" height="640" rx="24" fill="url(#cardbg)"/><rect x="0" width="620" height="640" rx="24" fill="url(#dots2)"/><rect x="0.75" y=".75" width="618.5" height="638.5" rx="23.25" fill="none" stroke="url(#edge)" stroke-width="1.5"/></g><g class="cardL"><text class="m" x="28" y="46" font-size="12.5" font-weight="700" fill="#22d3ee" letter-spacing="2.2">// WHAT I BUILD</text><text x="28" y="86" font-size="29" font-weight="700" fill="#eceef6" letter-spacing="-.5">Built to run in production</text><g clip-path="url(#winL)"><rect x="28" y="118" width="564" height="352" fill="url(#wall)"/><rect x="28" y="118" width="564" height="34" fill="#1c2036"/><circle cx="46" cy="135" r="5" fill="#ff5f57"/><circle cx="62" cy="135" r="5" fill="#febc2e"/><circle cx="78" cy="135" r="5" fill="#28c840"/><rect x="178" y="126" width="264" height="18" rx="9" fill="#0f1224"/><text class="m" x="298" y="139" font-size="11" fill="#8d93ab" text-anchor="middle">localhost:8080/api/health</text><rect class="cursor" x="388" y="130" width="1.5" height="11" fill="#22d3ee"/><rect x="28" y="372" width="564" height="98" fill="#9fb0ee"/><rect x="28" y="372" width="564" height="5" fill="#8497e6"/><circle cx="82" cy="205" r="28" fill="#c7d4ff" stroke="#6f86e8" stroke-width="4"/><path d="M82 205V190" stroke="#4a5fc4" stroke-width="3" stroke-linecap="round"/><path d="M82 205V184" stroke="#4a5fc4" stroke-width="2" stroke-linecap="round"><animateTransform attributeName="transform" type="rotate" from="0 82 205" to="360 82 205" dur="24s" repeatCount="indefinite"/></path><circle cx="82" cy="205" r="3" fill="#4a5fc4"/><rect x="52" y="350" width="36" height="22" rx="3" fill="#ef5a4c"/><g><animateTransform attributeName="transform" type="rotate" values="-3 70 350;3 70 350;-3 70 350" dur="5s" repeatCount="indefinite"/><ellipse cx="70" cy="320" rx="9" ry="30" fill="#4f64d0"/><ellipse cx="70" cy="320" rx="9" ry="28" fill="#6b80e8" transform="rotate(-28 70 350)"/><ellipse cx="70" cy="322" rx="9" ry="26" fill="#3d4fb4" transform="rotate(28 70 350)"/></g><rect x="118" y="348" width="24" height="24" rx="4" fill="#f4a3b4"/><rect x="118" y="355" width="24" height="9" fill="#e0607e"/><path class="steam" d="M126 342c-4-6 4-8 0-14" fill="none" stroke="#fff" stroke-width="2.5" stroke-linecap="round"/><path class="steam" style="animation-delay:1.2s" d="M135 342c-4-6 4-8 0-14" fill="none" stroke="#fff" stroke-width="2.5" stroke-linecap="round"/><rect x="285" y="338" width="20" height="30" fill="#162c5e"/><rect x="250" y="366" width="90" height="8" rx="4" fill="#162c5e"/><rect x="170" y="168" width="250" height="172" rx="9" fill="#1d3a78"/><rect x="178" y="176" width="234" height="156" rx="4" fill="#f3f6ff"/><rect x="178" y="176" width="234" height="16" rx="4" fill="#dfe6ff"/><circle cx="187" cy="184" r="2.5" fill="#ff5f57"/><circle cx="195" cy="184" r="2.5" fill="#febc2e"/><circle cx="203" cy="184" r="2.5" fill="#28c840"/><text class="m" x="340" y="187" font-size="8" fill="#4a5fc4" text-anchor="middle">api-gateway · UP</text><rect x="266" y="194" width="1" height="130" fill="#cbd5f5"/><circle cx="190" cy="203.5" r="2.5" fill="#22d3ee"/><rect x="197" y="201" width="52" height="5" rx="2.5" fill="#b6c2ec"/><circle cx="190" cy="216.5" r="2.5" fill="#a78bfa"/><rect x="197" y="214" width="44" height="5" rx="2.5" fill="#b6c2ec"/><circle cx="190" cy="229.5" r="2.5" fill="#f472b6"/><rect x="197" y="227" width="48" height="5" rx="2.5" fill="#b6c2ec"/><circle cx="190" cy="242.5" r="2.5" fill="#fbbf24"/><rect x="197" y="240" width="40" height="5" rx="2.5" fill="#b6c2ec"/><circle cx="190" cy="255.5" r="2.5" fill="#34d399"/><rect x="197" y="253" width="46" height="5" rx="2.5" fill="#b6c2ec"/><circle cx="190" cy="268.5" r="2.5" fill="#22d3ee"/><rect x="197" y="266" width="30" height="5" rx="2.5" fill="#b6c2ec"/><circle cx="190" cy="281.5" r="2.5" fill="#a78bfa"/><rect x="197" y="279" width="38" height="5" rx="2.5" fill="#b6c2ec"/><circle cx="190" cy="294.5" r="2.5" fill="#f472b6"/><rect x="197" y="292" width="50" height="5" rx="2.5" fill="#b6c2ec"/><rect x="182" y="196" width="80" height="11" rx="3" fill="#a78bfa" fill-opacity=".28"><animateTransform attributeName="transform" type="translate" values="0 0;0 13;0 26;0 39;0 52;0 65;0 78;0 91" keyTimes="0.000;0.125;0.250;0.375;0.500;0.625;0.750;0.875" calcMode="discrete" dur="16s" repeatCount="indefinite"/></rect><rect x="274" y="198" width="52" height="16" rx="8" fill="#d2f6e6"><animate attributeName="opacity" values="1;.55;1" dur="2s" repeatCount="indefinite"/></rect><text class="m" x="300" y="209.5" font-size="9" font-weight="700" fill="#0f9e6a" text-anchor="middle">200 OK</text><text class="m" x="334" y="209.5" font-size="8" fill="#6c7bb8">GET /api/v1</text><rect class="bar" style="animation-delay:0.00s" x="276" y="272" width="11" height="34" rx="2" fill="#22d3ee"/><rect class="bar" style="animation-delay:0.18s" x="293" y="254" width="11" height="52" rx="2" fill="#a78bfa"/><rect class="bar" style="animation-delay:0.36s" x="310" y="266" width="11" height="40" rx="2" fill="#f472b6"/><rect class="bar" style="animation-delay:0.54s" x="327" y="240" width="11" height="66" rx="2" fill="#22d3ee"/><rect class="bar" style="animation-delay:0.72s" x="344" y="258" width="11" height="48" rx="2" fill="#a78bfa"/><rect class="bar" style="animation-delay:0.90s" x="361" y="234" width="11" height="72" rx="2" fill="#f472b6"/><rect class="bar" style="animation-delay:1.08s" x="378" y="248" width="11" height="58" rx="2" fill="#22d3ee"/><path class="dash" d="M420 240C455 240 470 215 494 207" fill="none" stroke="#a78bfa" stroke-width="2" id="lp0"/><circle r="4.5" fill="#a78bfa"><animateMotion dur="2.6s" begin="0.0s" repeatCount="indefinite" path="M420 240C455 240 470 215 494 207"/></circle><g class="fl" style="animation-delay:0.0s"><rect x="494" y="191" width="52" height="32" rx="9" fill="#fff" stroke="#a78bfa" stroke-width="2.2"/><text class="m" x="520" y="212" font-size="14" font-weight="700" fill="#a78bfa" text-anchor="middle">API</text></g><path class="dash" d="M420 255C470 260 500 262 531 262" fill="none" stroke="#22d3ee" stroke-width="2" id="lp1"/><circle r="4.5" fill="#22d3ee"><animateMotion dur="2.6s" begin="0.7s" repeatCount="indefinite" path="M420 255C470 260 500 262 531 262"/></circle><g class="fl" style="animation-delay:-1.1s"><rect x="531" y="246" width="52" height="32" rx="9" fill="#fff" stroke="#22d3ee" stroke-width="2.2"/><text class="m" x="557" y="267" font-size="14" font-weight="700" fill="#22d3ee" text-anchor="middle">{ }</text></g><path class="dash" d="M420 270C455 275 470 305 494 314" fill="none" stroke="#fbbf24" stroke-width="2" id="lp2"/><circle r="4.5" fill="#fbbf24"><animateMotion dur="2.6s" begin="1.4s" repeatCount="indefinite" path="M420 270C455 275 470 305 494 314"/></circle><g class="fl" style="animation-delay:-2.2s"><rect x="494" y="298" width="52" height="32" rx="9" fill="#fff" stroke="#fbbf24" stroke-width="2.2"/><text class="m" x="520" y="319" font-size="14" font-weight="700" fill="#fbbf24" text-anchor="middle">DB</text></g><rect x="205" y="378" width="180" height="18" rx="4" fill="#1d3a78"/><path d="M190 470C190 420 225 392 295 390C365 392 400 420 400 470Z" fill="#11224d"/><path d="M205 470C205 424 238 400 295 398C352 400 385 424 385 470Z" fill="#1c1a3d" stroke="#22d3ee" stroke-width="2.5"/><rect x="284" y="376" width="22" height="26" fill="#7a4d34"/><ellipse cx="295" cy="346" rx="34" ry="38" fill="#0b0b16" stroke="#a78bfa" stroke-width="2"/><path d="M270 328C285 318 310 318 322 330" fill="none" stroke="#22d3ee" stroke-width="3" stroke-linecap="round"/><circle cx="262" cy="352" r="7" fill="#8d5b3e"/><circle cx="328" cy="352" r="7" fill="#8d5b3e"/><path d="M228 420C232 405 240 396 250 392M362 420C358 405 350 396 340 392" fill="none" stroke="#1c1a3d" stroke-width="16" stroke-linecap="round"/><circle cx="250" cy="389" r="8.5" fill="#8d5b3e"><animate attributeName="cy" values="389;385;389" dur=".45s" repeatCount="indefinite"/></circle><circle cx="340" cy="389" r="8.5" fill="#8d5b3e"><animate attributeName="cy" values="389;385;389" dur=".45s" begin=".22s" repeatCount="indefinite"/></circle></g><rect x="28.5" y="118.5" width="563" height="351" rx="13.5" fill="none" stroke="#fff" stroke-opacity=".08"/><g class="row" style="animation-delay:0.90s"><rect x="28" y="492" width="26" height="26" rx="8" fill="#22d3ee" fill-opacity=".12" stroke="#22d3ee" stroke-opacity=".35"/><path d="M36 505l3.5 3.5L47 501" fill="none" stroke="#22d3ee" stroke-width="2.2" stroke-linecap="round" stroke-linejoin="round"/><text x="66" y="510" font-size="13.5" font-weight="600" fill="#eceef6">Production-ready backend systems</text></g><g class="row" style="animation-delay:1.02s"><rect x="318" y="492" width="26" height="26" rx="8" fill="#a78bfa" fill-opacity=".12" stroke="#a78bfa" stroke-opacity=".35"/><path d="M326 505l3.5 3.5L337 501" fill="none" stroke="#a78bfa" stroke-width="2.2" stroke-linecap="round" stroke-linejoin="round"/><text x="356" y="510" font-size="13.5" font-weight="600" fill="#eceef6">Full-stack applications</text></g><g class="row" style="animation-delay:1.14s"><rect x="28" y="526" width="26" height="26" rx="8" fill="#f472b6" fill-opacity=".12" stroke="#f472b6" stroke-opacity=".35"/><path d="M36 539l3.5 3.5L47 535" fill="none" stroke="#f472b6" stroke-width="2.2" stroke-linecap="round" stroke-linejoin="round"/><text x="66" y="544" font-size="13.5" font-weight="600" fill="#eceef6">AI-powered applications</text></g><g class="row" style="animation-delay:1.26s"><rect x="318" y="526" width="26" height="26" rx="8" fill="#fbbf24" fill-opacity=".12" stroke="#fbbf24" stroke-opacity=".35"/><path d="M326 539l3.5 3.5L337 535" fill="none" stroke="#fbbf24" stroke-width="2.2" stroke-linecap="round" stroke-linejoin="round"/><text x="356" y="544" font-size="13.5" font-weight="600" fill="#eceef6">Healthcare technology</text></g><g class="row" style="animation-delay:1.38s"><rect x="28" y="560" width="26" height="26" rx="8" fill="#34d399" fill-opacity=".12" stroke="#34d399" stroke-opacity=".35"/><path d="M36 573l3.5 3.5L47 569" fill="none" stroke="#34d399" stroke-width="2.2" stroke-linecap="round" stroke-linejoin="round"/><text x="66" y="578" font-size="13.5" font-weight="600" fill="#eceef6">Security platforms</text></g><g class="row" style="animation-delay:1.50s"><rect x="318" y="560" width="26" height="26" rx="8" fill="#22d3ee" fill-opacity=".12" stroke="#22d3ee" stroke-opacity=".35"/><path d="M326 573l3.5 3.5L337 569" fill="none" stroke="#22d3ee" stroke-width="2.2" stroke-linecap="round" stroke-linejoin="round"/><text x="356" y="578" font-size="13.5" font-weight="600" fill="#eceef6">REST APIs</text></g><g class="row" style="animation-delay:1.62s"><rect x="28" y="594" width="26" height="26" rx="8" fill="#a78bfa" fill-opacity=".12" stroke="#a78bfa" stroke-opacity=".35"/><path d="M36 607l3.5 3.5L47 603" fill="none" stroke="#a78bfa" stroke-width="2.2" stroke-linecap="round" stroke-linejoin="round"/><text x="66" y="612" font-size="13.5" font-weight="600" fill="#eceef6">Microservices</text></g><g class="row" style="animation-delay:1.74s"><rect x="318" y="594" width="26" height="26" rx="8" fill="#f472b6" fill-opacity=".12" stroke="#f472b6" stroke-opacity=".35"/><path d="M326 607l3.5 3.5L337 603" fill="none" stroke="#f472b6" stroke-width="2.2" stroke-linecap="round" stroke-linejoin="round"/><text x="356" y="612" font-size="13.5" font-weight="600" fill="#eceef6">Data-driven applications</text></g></g>
<g class="cardR"><rect x="660" width="620" height="640" rx="24" fill="url(#cardbg)"/><rect x="660" width="620" height="640" rx="24" fill="url(#dots2)"/><rect x="660.75" y=".75" width="618.5" height="638.5" rx="23.25" fill="none" stroke="url(#edgeR)" stroke-width="1.5"/></g><g class="cardR"><text class="m" x="688" y="46" font-size="12.5" font-weight="700" fill="#f472b6" letter-spacing="2.2">// CURRENT FOCUS</text><text x="688" y="86" font-size="29" font-weight="700" fill="#eceef6" letter-spacing="-.5">Always learning, always shipping</text><g clip-path="url(#winR)"><rect x="688" y="118" width="564" height="352" fill="#0b0c1e"/><rect x="688" y="118" width="564" height="352" fill="url(#dots3)"/><rect x="688" y="118" width="564" height="28" fill="#14152b"/><circle cx="704" cy="132" r="4" fill="#ff5f57"/><circle cx="718" cy="132" r="4" fill="#febc2e"/><circle cx="732" cy="132" r="4" fill="#28c840"/><text class="m" x="970" y="136" font-size="11" fill="#8d93ab" text-anchor="middle">focus.timeline</text><ellipse class="dash" cx="970" cy="262" rx="190" ry="86" fill="none" stroke="#22d3ee" stroke-opacity=".7" stroke-width="1.8"/><path d="M970 262L970.0 176.0" stroke="#a78bfa" stroke-opacity=".25" stroke-width="1.2"/><path d="M970 262L1104.4 201.2" stroke="#a78bfa" stroke-opacity=".25" stroke-width="1.2"/><path d="M970 262L1160.0 262.0" stroke="#a78bfa" stroke-opacity=".25" stroke-width="1.2"/><path d="M970 262L1104.4 322.8" stroke="#a78bfa" stroke-opacity=".25" stroke-width="1.2"/><path d="M970 262L970.0 348.0" stroke="#a78bfa" stroke-opacity=".25" stroke-width="1.2"/><path d="M970 262L835.6 322.8" stroke="#a78bfa" stroke-opacity=".25" stroke-width="1.2"/><path d="M970 262L780.0 262.0" stroke="#a78bfa" stroke-opacity=".25" stroke-width="1.2"/><path d="M970 262L835.6 201.2" stroke="#a78bfa" stroke-opacity=".25" stroke-width="1.2"/><circle r="5" fill="#f472b6"><animateMotion dur="8s" repeatCount="indefinite" path="M780 262a190 86 0 1 1 380 0a190 86 0 1 1 -380 0"/></circle><circle r="4" fill="#34d399"><animateMotion dur="8s" begin="-4s" repeatCount="indefinite" path="M780 262a190 86 0 1 1 380 0a190 86 0 1 1 -380 0"/></circle><circle class="spin" cx="970" cy="262" r="46" fill="none" stroke="#a78bfa" stroke-width="2" stroke-dasharray="3 9" stroke-linecap="round"/><circle cx="970" cy="262" r="34" fill="url(#core)"/><text x="970" y="264" font-size="15" font-weight="700" fill="#fff" text-anchor="middle">Now</text><text class="m" x="970" y="279" font-size="9" fill="#e4dcff" text-anchor="middle">learning</text><rect x="916.0" y="162.0" width="108" height="28" rx="14" fill="#12142b" stroke="#22d3ee" stroke-width="1.6"/><rect class="hl" style="animation-delay:0s" x="916.0" y="162.0" width="108" height="28" rx="14" fill="#22d3ee"/><text x="970.0" y="180.0" font-size="11.5" font-weight="700" fill="#eceef6" text-anchor="middle">Java · Spring Boot</text><rect x="1050.4" y="187.2" width="108" height="28" rx="14" fill="#12142b" stroke="#a78bfa" stroke-width="1.6"/><rect class="hl" style="animation-delay:2s" x="1050.4" y="187.2" width="108" height="28" rx="14" fill="#a78bfa"/><text x="1104.4" y="205.2" font-size="11.5" font-weight="700" fill="#eceef6" text-anchor="middle">AI / ML</text><rect x="1106.0" y="248.0" width="108" height="28" rx="14" fill="#12142b" stroke="#f472b6" stroke-width="1.6"/><rect class="hl" style="animation-delay:4s" x="1106.0" y="248.0" width="108" height="28" rx="14" fill="#f472b6"/><text x="1160.0" y="266.0" font-size="11.5" font-weight="700" fill="#eceef6" text-anchor="middle">Full-Stack</text><rect x="1050.4" y="308.8" width="108" height="28" rx="14" fill="#12142b" stroke="#fbbf24" stroke-width="1.6"/><rect class="hl" style="animation-delay:6s" x="1050.4" y="308.8" width="108" height="28" rx="14" fill="#fbbf24"/><text x="1104.4" y="326.8" font-size="11.5" font-weight="700" fill="#eceef6" text-anchor="middle">System Design</text><rect x="916.0" y="334.0" width="108" height="28" rx="14" fill="#12142b" stroke="#34d399" stroke-width="1.6"/><rect class="hl" style="animation-delay:8s" x="916.0" y="334.0" width="108" height="28" rx="14" fill="#34d399"/><text x="970.0" y="352.0" font-size="11.5" font-weight="700" fill="#eceef6" text-anchor="middle">Microservices</text><rect x="781.6" y="308.8" width="108" height="28" rx="14" fill="#12142b" stroke="#22d3ee" stroke-width="1.6"/><rect class="hl" style="animation-delay:10s" x="781.6" y="308.8" width="108" height="28" rx="14" fill="#22d3ee"/><text x="835.6" y="326.8" font-size="11.5" font-weight="700" fill="#eceef6" text-anchor="middle">Docker · DevOps</text><rect x="726.0" y="248.0" width="108" height="28" rx="14" fill="#12142b" stroke="#a78bfa" stroke-width="1.6"/><rect class="hl" style="animation-delay:12s" x="726.0" y="248.0" width="108" height="28" rx="14" fill="#a78bfa"/><text x="780.0" y="266.0" font-size="11.5" font-weight="700" fill="#eceef6" text-anchor="middle">DSA · Java</text><rect x="781.6" y="187.2" width="108" height="28" rx="14" fill="#12142b" stroke="#f472b6" stroke-width="1.6"/><rect class="hl" style="animation-delay:14s" x="781.6" y="187.2" width="108" height="28" rx="14" fill="#f472b6"/><text x="835.6" y="205.2" font-size="11.5" font-weight="700" fill="#eceef6" text-anchor="middle">Spring AI</text><rect x="688" y="400" width="564" height="70" fill="#0a0b18"/><path d="M700 418H1240" stroke="#262a42" stroke-width="1.5"/><path d="M700 436H1240" stroke="#262a42" stroke-width="1.5"/><path d="M700 454H1240" stroke="#262a42" stroke-width="1.5"/><rect x="716" y="414" width="8" height="8" fill="#22d3ee" transform="rotate(45 720 418)"/><rect x="782" y="414" width="8" height="8" fill="#a78bfa" transform="rotate(45 786 418)"/><rect x="848" y="414" width="8" height="8" fill="#f472b6" transform="rotate(45 852 418)"/><rect x="914" y="414" width="8" height="8" fill="#fbbf24" transform="rotate(45 918 418)"/><rect x="980" y="414" width="8" height="8" fill="#34d399" transform="rotate(45 984 418)"/><rect x="1046" y="414" width="8" height="8" fill="#22d3ee" transform="rotate(45 1050 418)"/><rect x="1112" y="414" width="8" height="8" fill="#a78bfa" transform="rotate(45 1116 418)"/><rect x="1178" y="414" width="8" height="8" fill="#f472b6" transform="rotate(45 1182 418)"/><rect x="726" y="432" width="8" height="8" fill="#a78bfa" transform="rotate(45 730 436)"/><rect x="796" y="432" width="8" height="8" fill="#a78bfa" transform="rotate(45 800 436)"/><rect x="901" y="432" width="8" height="8" fill="#a78bfa" transform="rotate(45 905 436)"/><rect x="1006" y="432" width="8" height="8" fill="#a78bfa" transform="rotate(45 1010 436)"/><rect x="1126" y="432" width="8" height="8" fill="#a78bfa" transform="rotate(45 1130 436)"/><rect x="1196" y="432" width="8" height="8" fill="#a78bfa" transform="rotate(45 1200 436)"/><rect x="711" y="450" width="8" height="8" fill="#22d3ee" transform="rotate(45 715 454)"/><rect x="856" y="450" width="8" height="8" fill="#22d3ee" transform="rotate(45 860 454)"/><rect x="946" y="450" width="8" height="8" fill="#22d3ee" transform="rotate(45 950 454)"/><rect x="1071" y="450" width="8" height="8" fill="#22d3ee" transform="rotate(45 1075 454)"/><rect x="1156" y="450" width="8" height="8" fill="#22d3ee" transform="rotate(45 1160 454)"/><rect x="1221" y="450" width="8" height="8" fill="#22d3ee" transform="rotate(45 1225 454)"/><g class="play" transform="translate(704 0)"><path d="M0 402V470" stroke="#fff" stroke-opacity=".85" stroke-width="1.5"/><path d="M-5 402H5L0 410Z" fill="#fff"/></g></g><rect x="688.5" y="118.5" width="563" height="351" rx="13.5" fill="none" stroke="#fff" stroke-opacity=".08"/><g class="row" style="animation-delay:0.90s"><rect x="688" y="492" width="26" height="26" rx="8" fill="#22d3ee" fill-opacity=".12" stroke="#22d3ee" stroke-opacity=".35"/><circle cx="701" cy="505" r="3.6" fill="#22d3ee"/><circle cx="701" cy="505" r="4" fill="none" stroke="#22d3ee"><animate attributeName="r" values="4;11" dur="2s" begin="0.0s" repeatCount="indefinite"/><animate attributeName="opacity" values=".8;0" dur="2s" begin="0.0s" repeatCount="indefinite"/></circle><text x="726" y="510" font-size="13.5" font-weight="600" fill="#eceef6">Java &amp; Spring Boot</text></g><g class="row" style="animation-delay:1.02s"><rect x="978" y="492" width="26" height="26" rx="8" fill="#a78bfa" fill-opacity=".12" stroke="#a78bfa" stroke-opacity=".35"/><circle cx="991" cy="505" r="3.6" fill="#a78bfa"/><circle cx="991" cy="505" r="4" fill="none" stroke="#a78bfa"><animate attributeName="r" values="4;11" dur="2s" begin="0.25s" repeatCount="indefinite"/><animate attributeName="opacity" values=".8;0" dur="2s" begin="0.25s" repeatCount="indefinite"/></circle><text x="1016" y="510" font-size="13.5" font-weight="600" fill="#eceef6">AI/ML</text></g><g class="row" style="animation-delay:1.14s"><rect x="688" y="526" width="26" height="26" rx="8" fill="#f472b6" fill-opacity=".12" stroke="#f472b6" stroke-opacity=".35"/><circle cx="701" cy="539" r="3.6" fill="#f472b6"/><circle cx="701" cy="539" r="4" fill="none" stroke="#f472b6"><animate attributeName="r" values="4;11" dur="2s" begin="0.5s" repeatCount="indefinite"/><animate attributeName="opacity" values=".8;0" dur="2s" begin="0.5s" repeatCount="indefinite"/></circle><text x="726" y="544" font-size="13.5" font-weight="600" fill="#eceef6">Full-Stack Development</text></g><g class="row" style="animation-delay:1.26s"><rect x="978" y="526" width="26" height="26" rx="8" fill="#fbbf24" fill-opacity=".12" stroke="#fbbf24" stroke-opacity=".35"/><circle cx="991" cy="539" r="3.6" fill="#fbbf24"/><circle cx="991" cy="539" r="4" fill="none" stroke="#fbbf24"><animate attributeName="r" values="4;11" dur="2s" begin="0.75s" repeatCount="indefinite"/><animate attributeName="opacity" values=".8;0" dur="2s" begin="0.75s" repeatCount="indefinite"/></circle><text x="1016" y="544" font-size="13.5" font-weight="600" fill="#eceef6">System Design</text></g><g class="row" style="animation-delay:1.38s"><rect x="688" y="560" width="26" height="26" rx="8" fill="#34d399" fill-opacity=".12" stroke="#34d399" stroke-opacity=".35"/><circle cx="701" cy="573" r="3.6" fill="#34d399"/><circle cx="701" cy="573" r="4" fill="none" stroke="#34d399"><animate attributeName="r" values="4;11" dur="2s" begin="1.0s" repeatCount="indefinite"/><animate attributeName="opacity" values=".8;0" dur="2s" begin="1.0s" repeatCount="indefinite"/></circle><text x="726" y="578" font-size="13.5" font-weight="600" fill="#eceef6">Microservices</text></g><g class="row" style="animation-delay:1.50s"><rect x="978" y="560" width="26" height="26" rx="8" fill="#22d3ee" fill-opacity=".12" stroke="#22d3ee" stroke-opacity=".35"/><circle cx="991" cy="573" r="3.6" fill="#22d3ee"/><circle cx="991" cy="573" r="4" fill="none" stroke="#22d3ee"><animate attributeName="r" values="4;11" dur="2s" begin="1.25s" repeatCount="indefinite"/><animate attributeName="opacity" values=".8;0" dur="2s" begin="1.25s" repeatCount="indefinite"/></circle><text x="1016" y="578" font-size="13.5" font-weight="600" fill="#eceef6">Docker &amp; DevOps</text></g><g class="row" style="animation-delay:1.62s"><rect x="688" y="594" width="26" height="26" rx="8" fill="#a78bfa" fill-opacity=".12" stroke="#a78bfa" stroke-opacity=".35"/><circle cx="701" cy="607" r="3.6" fill="#a78bfa"/><circle cx="701" cy="607" r="4" fill="none" stroke="#a78bfa"><animate attributeName="r" values="4;11" dur="2s" begin="1.5s" repeatCount="indefinite"/><animate attributeName="opacity" values=".8;0" dur="2s" begin="1.5s" repeatCount="indefinite"/></circle><text x="726" y="612" font-size="13.5" font-weight="600" fill="#eceef6">DSA with Java</text></g><g class="row" style="animation-delay:1.74s"><rect x="978" y="594" width="26" height="26" rx="8" fill="#f472b6" fill-opacity=".12" stroke="#f472b6" stroke-opacity=".35"/><circle cx="991" cy="607" r="3.6" fill="#f472b6"/><circle cx="991" cy="607" r="4" fill="none" stroke="#f472b6"><animate attributeName="r" values="4;11" dur="2s" begin="1.75s" repeatCount="indefinite"/><animate attributeName="opacity" values=".8;0" dur="2s" begin="1.75s" repeatCount="indefinite"/></circle><text x="1016" y="612" font-size="13.5" font-weight="600" fill="#eceef6">Spring AI</text></g></g>
</svg>